<svg xmlns="http://www.w3.org/2000/svg" xmlns:xlink="http://www.w3.org/1999/xlink" width="600" height="600" viewBox="0 0 600 600" overflow="hidden!important"><style><![CDATA[.B{fill:#f0c7b1}.C{fill:#c27b55}.D{stroke:#c27b55}.E{stroke-width:1.5}.F{fill:#2a232b}]]></style><g transform="matrix(2.549997 0 0 2.549997 45.001035 66.946458)"><path d="M100.5 100.5h-1v-1h1v1z" class="F"/><use xlink:href="#K" class="B"/><path d="M159.156 184.058c24.342 3.542 34.586 8.708 37.794 50.721H200c0-12.5-.877-26.992-4.583-35-2.196-4.746-8.195-11.779-14.86-13.722-8.239-2.403-26.837-5.308-33.733-6.923-5.528-1.296-18.242-12.069-21.643-16.35 3.36 4.704 12.791 15.605 21.054 18.46 3.953 1.366 7.245 1.988 12.921 2.814zm-105.39-2.814c8.263-2.854 17.693-13.756 21.054-18.46-3.4 4.28-16.114 15.054-21.643 16.35-6.896 1.615-25.494 4.619-33.733 7.022-6.665 1.942-12.664 8.876-14.86 13.622-3.706 8.008-4.583 22.5-4.583 35h3.05c3.188-41.744 13.475-47.183 37.794-50.721 5.675-.825 8.968-1.447 12.921-2.813z" fill="#ffe4d6"/><path d="M95.646 197.62l-7.083-2.379c-10.449-4.009-44.395-6.607-44.395-6.607s35.754 1.419 43.644 2.779c-.458-4.767-3.017-20.004-3.017-20.004l6.409 21.057c.674 2.268 4.442 5.154 4.442 5.154zm10.799-1.342c-.089.073-.191.168-.302.268a2.27 2.27 0 0 0 .302-.268zm-10.799 1.342s2.893 2.992 4.347 3.03c1.91.051 4.828-2.899 6.151-4.104-1.265.957-4.159 1.391-5.31 1.436-1.33.051-5.188-.362-5.188-.362zm21.018-7.519c-1.545.248-4.386.789-4.386.789l2.287-14.89c-.646 3.071-4.474 16.211-8.12 20.278 1.91-1.616 6.158-2.391 8.324-2.704 10.236-1.484 10.232-1.483 41.062-4.94 0 0-29.071-.155-39.167 1.467z" fill="#e1ac8f"/><use xlink:href="#K" fill="none" class="D E"/><path d="M124.272 162.248c-.028-.175-.048-.349-.051-.515-.094-7.38 1.819-22.721 3.098-32.078-15.699-1.984-38.937-1.975-54.637.016 1.279 9.359 3.19 24.687 3.094 32.062a3.11 3.11 0 0 1-.03.367c3.825 3.586 7.667 6.528 11.055 8.151 5.312 2.546 21.035 2.427 26.401 0 3.411-1.541 7.254-4.439 11.07-8.003z" fill="url(#J)"/><path d="M42.77 235.757l1.323-60.852s10.194-2.487 16.635-6.313c17.496 21.953 69.451 17.333 78.336-.62 1.489.525 2.721 1.197 4.262 1.713 5 3.386 9.213 4.494 9.213 4.494l.935 61.685c-14.286.188-110.704-.107-110.704-.107z" fill="#f5f4f5"/><path d="M154.014 177.705c-4.236-.719-7.611-1.697-9.452-3.544-5.343 10.025-26.763 16.378-33.855 17.309 20.554-6.276 29.188-10.813 32.598-21.583 1.99 2.383 6.522 3.549 12.313 4.538l-1.604 3.28zM52.67 174.381c1.454-.312 2.18-1.234 3.623-1.593l-1.528-1.867c-3.114 2.234-8.971 3.305-15.9 4.424l.188 3.738c3.956-.79 7.817-1.788 11.429-3.323 7.483 8.485 19.168 12.659 31.06 14.387-14.918-3.585-23.472-9.636-28.872-15.766z" fill="#fff"/><path d="M137.861 170.055c-5.929 11.361-50.74 24.595-76.009.866-1.571.615-6.271 2.085-6.271 2.085 18.406 23.08 72.345 23.227 86.702-.112-.062-.024-2.962-2.157-4.422-2.839z" fill="#dfdde2"/><path d="M139.008 167.841c-10.087 18.575-62.578 21.204-78.239.625-5.72 1.556-11.219 4.876-16.756 5.707l-1.243 61.584 110.703.107-.855-62.386c-3.369-.707-6.501-2.737-9.254-3.894-1.522-.639-2.814-1.214-4.356-1.743zm-78.618 1.246c13.903 23.086 68.817 18.455 79.419.099 1.286.499 1.615.696 3.106 1.183-10.982 21.208-65.306 27.967-87.525 1.147.156-.04 3.433-1.887 5-2.429zm-6.103 3.331c17.963 27.046 77.26 22.856 89.583-1.287a20.07 20.07 0 0 0 7.936 3.735l1.66 59.08-110.377.016 1.904-58.299c2.784-1.399 7.254-2.431 9.294-3.245z" fill="#b8b6c9"/><path d="M-4.529 235.566c-2.574-13.852-2.292-47.592 9.013-47.521 13.136-5.311 29.269-11.404 42.802-15.311 6.908-7.246 13.436-14.137 26.188-21.314.389 2.599 1.874 8.541.011 11.773-1.355 2.352-5.783 5.576-9.554 8.368l-6.599 9.089c5.168 22.301 9.601 33.78 10.097 53.123 0 0-1.452.689 64.471.397 2.215-22.339 4.993-33.561 10.379-54.098 0 0-4.308-5.014-7.207-8.87-2.054-1.997-8.36-7.532-8.84-8.651-1.175-2.741-.548-6.188.11-11.367 10.793 4.873 17 12.021 26.082 21.303 7.729 2.119 30.86 9.967 42.445 15.216 3.965-.11 6.203 1.999 7.872 5.466 5.405 11.195 4.126 27.297 2.18 42.789-19.091.031-155.034 2.212-209.45-.392z" fill="#c33131"/><path d="M73.875 154.081l.411 3.041c-.218.266-17.212 23.353-17.336 23.525 4.176-9.499 10.15-19.342 16.925-26.566zm52.178 0c-.159 1.07-.184 2.085-.291 3.041.218.266 16.931 22.469 17.054 22.642-4.425-8.85-9.988-18.459-16.763-25.683zm38.955 31.073c-4.28 6.231-5.194 8.382-9.879 14.557 1.071 0 2.799.166 3.87.166 3.664-6.285 3.671-9.484 6.009-14.723zm4.386 45.225l10.739-25.624-1.247-2.014-9.492 27.638zM41.048 199.877c1.071 0 2.799-.166 3.871-.166-4.685-6.175-5.599-6.561-9.878-12.792 2.336 5.239 2.343 6.673 6.007 12.958zm-19.887 2.864l-1.247 2.014c3.806 8.913 4.765 16.724 8.559 25.624-2.961-9.18-4.143-18.483-7.312-27.638z" fill="#b41b1b"/><path d="M65.638 169.283c1.181-1.646 5.237-7.272 8.601-12.561.988 5.457-.826 8.694-8.601 12.561zm60.102-12.923c2.553 4.396 5.562 8.772 8.664 12.803-8.404-3.827-8.969-7.74-8.664-12.803z" fill="#a40808"/><path d="M126.318 151.359l.023-.174c18.093 9.999 28.576 25.02 40.747 36.217-.448.721-1.228 1.193-1.687 1.905-12.745-9.698-18.802-24.361-39.083-37.948zm-54.582.663c-15.034 8.213-36.242 33.357-38.318 35.269.448.724.691.577 1.15 1.288 12.746-9.697 16.225-19.296 37.168-36.557zm123.133 35.682c-1-.799-24.646-10.039-42.59-14.969 33.698 16.299 45.587 18.545 51.471 24.321-.383-.999-1.164-9.567-8.881-9.352zM47.458 172.555c-13.524 3.914-30.839 10.098-42.975 15.491-5.364.106-9.208 7.93-10.031 16.084 7.462-16.813 3.775-5.51 53.006-31.575z" fill="#d24a4a"/><path d="M206.6 210.062c-.34-8.635-3.055-23.103-11.691-22.46-.714-.61-20.822-9.767-42.285-15.611-7.353-7.455-16.515-17.598-26.371-20.957-.711 6.428-1.477 10.622.216 12.714 2.241 2.439 4.93 4.879 7.568 6.522 4.616 6.136 8.139 9.778 8.139 9.778-5.43 20.703-8.815 31.314-10.973 53.688H68.798c-2.157-22.373-5.543-32.984-10.973-53.688 0 0 3.522-3.643 8.139-9.778 2.639-1.644 5.327-4.083 7.568-6.522 1.692-2.092.927-6.286.216-12.714-9.856 3.359-19.019 13.502-26.371 20.957-21.463 5.845-41.571 15.001-42.285 15.611-8.637-.643-11.352 13.825-11.691 22.46C-7.01 220.549-5.164 235-5.014 236h210.029c.15-1.001 1.996-15.451 1.585-25.938zM72.984 163.194c-2.258 2.233-3.658 3.181-6.473 5.282 4.829-6.271 4.341-5.433 7.708-11.229.151 2.492-.786 5.504-1.235 5.947zm-76.156 70.834c-1.082-12.844-2.916-24.41.43-36.992 1.281-4.827 2.484-8.095 7.455-8.509 1.067 5.538 8.132 28.724 14.298 44.533-6.226-24.192-5.311-18.81-8.219-28.452-.964-3.235-1.854-6.486-2.979-9.672-.783-2.214-1.65-4.387-2.262-6.653l40.433-14.865c-.279.283-12.895 13.434-13.199 13.804 1.847 3.021 7.816 7.222 10.845 11.758-12.436 1.174-18.508 3.173-23 3.84l9.976 27.656c-1.479-7.917-4.816-20.297-8.637-27.211 1.41-.179 18.077-2.492 23.393-3.477-1.476-2.854-8.043-8.437-11.559-12.619 20.646-18.162 25.422-27.402 39.593-35.454.15 1.509.443 3.011.55 4.519-15.795 23.533-17.649 23.567-17.649 23.567 4.585 17.81 10.532 35.824 10.532 54.073l-70.001.154zm130.188-70.834c-.448-.443-1.386-3.455-1.235-5.947 3.367 5.797 2.879 4.958 7.708 11.229-2.815-2.101-4.216-3.048-6.473-5.282zm76.156 70.834l-70-.154c0-18.249 5.947-36.264 10.532-54.073 0 0-1.854-.034-17.649-23.567.106-1.508.399-3.01.55-4.519 14.171 8.052 18.946 17.292 39.593 35.454-3.516 4.183-10.083 9.766-11.559 12.619 5.315.984 21.982 3.298 23.393 3.477-3.82 6.914-7.157 19.294-8.637 27.211.915-2.304 9.645-26.737 9.976-27.656-4.492-.667-10.564-2.666-23-3.84 3.028-4.536 8.998-8.736 10.845-11.758-.305-.37-12.92-13.521-13.199-13.804.001 0 40.433 14.865 40.433 14.865-.611 2.267-1.479 4.439-2.262 6.653-1.125 3.186-2.015 6.437-2.979 9.672-2.908 9.643-1.993 4.26-8.219 28.452 6.166-15.81 13.23-38.995 14.298-44.533 4.971.414 6.174 3.682 7.455 8.509 3.345 12.582 1.511 24.149.429 36.992z" fill="#950000"/><path d="M47.001 83.231c-1.376-2.453-5.638-8.48-9.98-7.003-2.749.935-3.293 3.993-3.735 6.693-.588 3.591.471 10.694 1.389 13.26.881 2.467 3.533 7.23 5.264 9.045 2.13 2.225 4.775 9.324 5.194 10.061.66 1.162 1.536 2.911 4.122 2.692 2.853-.244 4.584-1.85 5.856-2.121 3.142-.666-4.529-26.242-8.11-32.627z" class="B D E"/><path d="M44.197 98.104c-.132-.581.007-1.56.142-2.504.124-.861.24-1.675.169-2.251-.267-2.154-1.773-6.249-2.757-8.467-1.132-2.554-2.963-5.77-5.262-6.599-.95-.343-1.575.067-1.938.484-.266.305-.325.665-.238.707s.285-.254.572-.535a1.3 1.3 0 0 1 1.051-.385c-.19 1.073-1.167 6.883-.744 10.845.333 3.115 1.593 5.442 1.79 5.791.029.367.077.726.148 1.075.929 4.547 4.971 9.717 6.378 11.409.259.313.531.497.598.423s-.094-.387-.353-.7c-1.388-1.679-5.391-6.831-6.289-11.218-.952-4.656 2.318-11.556 3.048-13.017.371.685.687 1.344.93 1.893a46.61 46.61 0 0 1 .619 1.479c-.429.762-3.434 6.32-2.338 10.767.406 1.641 2.235 3.755 3.447 4.333.667.32.919.797 1.209 1.349.336.64.718 1.365 1.828 1.892.225.108.429.151.61.151a1.06 1.06 0 0 0 .725-.293 11.84 11.84 0 0 1 .009.97c-.012.431.042.783.137.791s.196-.332.207-.76c.016-.526.013-1.177-.072-1.488-.248-.917-1.008-1.953-1.813-3.048-.789-1.082-1.607-2.195-1.813-3.094zm-7.247-4.031c-2.177-7.139.656-13.3 1.144-14.28.85.822 1.6 1.919 2.21 2.995-.444.858-3.263 6.483-3.354 11.285zm9.391 10.442c-1.004-.475-1.339-1.115-1.666-1.733-.293-.559-.598-1.136-1.369-1.505-.168-.081-.352-.203-.542-.343-2.486-6.263.272-9.001.963-9.562.211.766.369 1.468.439 2.031.063.517-.052 1.339-.167 2.134-.142.985-.286 2.004-.137 2.664.226.982 1.069 2.131 1.884 3.242.723.986 1.466 2.003 1.721 2.832-.108.164-.45.561-1.126.24z" class="C"/><path d="M152.736 83.231c1.377-2.453 5.639-8.48 9.98-7.003 2.75.935 3.293 3.993 3.736 6.693.588 3.591-.471 10.694-1.389 13.26-.881 2.467-3.533 7.23-5.266 9.045-2.129 2.225-4.775 9.324-5.193 10.061-.658 1.162-1.535 2.911-4.121 2.692-2.854-.244-4.584-1.85-5.857-2.121-3.142-.666 4.53-26.242 8.11-32.627z" class="B D E"/><path d="M153.727 101.196c-.805 1.096-1.564 2.131-1.813 3.048-.086.311-.088.962-.072 1.488.012.428.113.768.207.76s.148-.36.137-.791l.01-.97a1.06 1.06 0 0 0 .725.293c.182 0 .385-.043.609-.151 1.109-.526 1.492-1.252 1.828-1.892.289-.552.543-1.028 1.209-1.349 1.213-.578 3.041-2.692 3.447-4.333 1.096-4.447-1.908-10.005-2.338-10.767a46.99 46.99 0 0 1 .619-1.479 27.35 27.35 0 0 1 .93-1.893c.73 1.46 4 8.361 3.049 13.017-.896 4.387-4.9 9.539-6.289 11.218-.258.313-.418.624-.352.7s.338-.109.598-.423c1.406-1.692 5.449-6.862 6.379-11.409a9.15 9.15 0 0 0 .146-1.075c.197-.349 1.459-2.676 1.791-5.791.422-3.961-.555-9.772-.744-10.845.473-.042.814.156 1.051.385.287.281.486.577.572.535s.027-.402-.238-.707c-.363-.417-.988-.827-1.938-.484-2.299.83-4.131 4.045-5.262 6.599-.984 2.218-2.49 6.313-2.758 8.467-.072.576.045 1.39.17 2.251.135.945.273 1.924.141 2.504-.205.901-1.023 2.014-1.814 3.094zm5.707-18.409c.611-1.075 1.361-2.173 2.211-2.995.488.98 3.32 7.141 1.145 14.28-.093-4.801-2.911-10.426-3.356-11.285zm-7.164 21.488c.254-.829.998-1.846 1.721-2.832.816-1.111 1.658-2.26 1.885-3.242.148-.66.004-1.679-.137-2.664-.115-.795-.23-1.617-.166-2.134.068-.563.227-1.266.438-2.031.691.561 3.449 3.299.965 9.562a3.57 3.57 0 0 1-.543.343c-.771.369-1.074.946-1.369 1.505-.326.618-.662 1.258-1.666 1.733-.677.321-1.019-.076-1.128-.24z" class="C"/><use xlink:href="#L" class="B"/><path d="M110.152 1.982c26.994 6.338 47.097 30.814 47.052 60.039-.009 5.399-.704 10.635-2.004 15.624-.012.054-8.61 37.245-14.13 48.608-4.859 10.004-19.7 27.468-30.067 32.521-2.163 1.055-8.694 1.555-11.001 1.555s-8.837-.5-11-1.555c-10.367-5.053-25.209-22.517-30.067-32.521-5.521-11.363-14.119-48.554-14.13-48.608-1.3-4.988-1.996-10.225-2.004-15.624C42.756 32.796 62.857 8.32 89.853 1.982 61.03 6.877 39.087 32.232 39.134 62.767a62.25 62.25 0 0 0 2.004 15.623c.012.054 9.232 37.241 14.863 48.607 5.052 10.199 20.207 28.085 30.801 33.266 2.658 1.301 9.305 1.855 12.954 1.853s10.791-.552 13.447-1.853c10.594-5.182 25.748-23.066 30.801-33.266 5.631-11.366 14.852-48.553 14.862-48.607a62.25 62.25 0 0 0 2.004-15.623c.048-30.535-21.895-55.89-50.718-60.785z" fill="#e8b9a0"/><use xlink:href="#L" fill="none" class="D E"/><path d="M100.2 142.947c-2.832.144-3.644-2.753-3.644-2.753s3.931.565 6.991-.353c.001.001-.855 2.981-3.347 3.106z" fill="url(#C)"/><path d="M100.488 140.76c-1.984.1-3.765-.077-3.877-.089-.138-.014-.238-.136-.224-.272s.143-.233.274-.224c.041.003 4.096.405 6.738-.337.131-.032.271.041.309.174a.25.25 0 0 1-.173.308c-.934.262-2.018.388-3.047.44z" class="C"/><use xlink:href="#M" fill="#fff"/><use xlink:href="#M" fill="none" stroke-width=".75" class="D"/><use xlink:href="#N" fill="url(#D)"/><path d="M80.25 84.25a6 6 0 1 1-12 0 6 6 0 1 1 12 0z" fill="#7b5c33"/><path d="M70.762 87.055c.875-.072.1-.306.1-.306-.433-.233-1.248-.592-1.248-.921 0-1.031 1.414-1.299-.034-1.705-1.504-1.38 1.167-1.352 1.147-1.398-.975-2.376.299-1.071.835-1.773 1.988-2.599.554.267 1.633 0 .391-.096-.78-1.531.034-1.33.539.132.662.58.662.58.393-.077 1.008-.682 1.008-.682.749.226 1.275 1.29 1.043 1.091.368-.045.884-.221 1.286-.341 0 0 .07-.239.139-.033.917 2.661 3.284 2.47.559 3.24 0 0-.176 0 .382.442 2.71 2.164-2.102 1.495.451 2.49.104-.104-1.53.965-1.53 1.261 0 .501-1.042 1.818-1.946 1.3-.504-.288-.581.6-.877.19-.581-.803-1.742-.035-1.313-.773.634-.521-.654.204-.904.204-.828 0 1.083-2.783 3.894-.715.822.602-.864-1.433.625-1.433.149.049.104-.521.104-.682-.774-.151 1.39-.003 1.39-1.262.137.027.509-.35-1.635 0 0 0-.068-.75-.034-.886.11-.438 1.214-.298.904-.75 0-.001-.799-1.604-.799-1.604-2.573-.414-1.102-.672-2.711-.341-.076.378-3.445 1.984-3.338 2.729.1.702 2.115.938.208 2.182 2.858 5.472-2.11-.125-.035 1.226z" fill="#8a6d47"/><path d="M74.25 78.999l.171 4.393 1.837-3.993-1.523 4.123 3.227-2.985-2.985 3.226 4.124-1.523-3.992 1.839 4.392.17-4.392.17 3.992 1.839-4.124-1.523 2.985 3.226-3.227-2.985 1.523 4.123-1.837-3.993-.171 4.393-.171-4.393-1.838 3.993 1.522-4.123-3.226 2.985 2.985-3.226-4.124 1.523 3.992-1.839-4.39-.17 4.39-.17-3.992-1.839 4.124 1.523-2.985-3.226 3.226 2.985-1.522-4.123 1.838 3.993.171-4.393z" fill="#5c3d14"/><path d="M75.046 80.317l-.539 3.315 1.981-2.711-1.766 2.857 2.87-1.748-2.725 1.964 3.319-.515-3.268.771 3.266.794-3.317-.538 2.712 1.982-2.858-1.765 1.748 2.869-1.964-2.725.516 3.319-.771-3.27-.795 3.264.539-3.315-1.984 2.711 1.768-2.857-2.869 1.748 2.725-1.964-3.319.516 3.269-.771-3.264-.793 3.315.537-2.712-1.982 2.858 1.765-1.747-2.869 1.964 2.725-.516-3.318.772 3.27.792-3.266z" fill="#4d3009"/><path d="M76.5 84.25a2.25 2.25 0 1 1-4.5 0 2.25 2.25 0 1 1 4.5 0z" opacity=".9"/><g fill="#fff"><path d="M71.887 88.561c-.331.332-.985.215-1.46-.261s-.593-1.129-.261-1.461.985-.214 1.46.261.593 1.129.261 1.461z" opacity=".7"/><path d="M79.056 83.068c-.496.496-1.697.1-2.682-.886s-1.382-2.187-.886-2.683 1.697-.1 2.682.886 1.382 2.187.886 2.683z" opacity=".9"/></g><path d="M53.294 83c.809 10.899 11.637 23.583 20.506 22.236 10.498.106 20.864-7.868 20.864-22.305s-5.087-26.528-21.127-26.528c-11.5-.001-20.243 12.16-20.243 26.597zm8.458-.477c-.506-2.285 5.191-3.973 12.711-3.051s12.738 5.524 12.052 7.844c-.38 1.286-10.639 3.245-14.253 2.847-3.664-.405-9.288-2.123-10.51-7.64z" class="B"/><path d="M72.262 90.163c3.614.398 13.873-1.561 14.253-2.847.687-2.32-4.534-6.921-12.052-7.844-6.46-.792-11.563.344-12.556 2.128.898-6.4 7.7-11.397 15.987-11.434 8.911-.037 16.148 5.676 16.172 12.765s-7.185 12.862-16.095 12.902-16.149-5.676-16.173-12.764c0-.105.016-.208.019-.313 1.33 5.327 6.834 7.008 10.445 7.407z" fill="url(#F)"/><use xlink:href="#N" fill="url(#G)"/><path d="M62.148 77.417c4.208-1.978 9.35-2.16 13.838-1.005 2.404.561 4.965 1.285 7.063 2.638 1.945 1.135 3.525 2.5 5.002 4.19-1.342-1.701-2.773-3.118-4.623-4.27-2.276-1.416-4.769-2.294-7.364-2.916-4.586-1.126-9.722-.87-13.916 1.363z" class="C"/><path d="M62.769 78.02c.88-.352 4.065-1 5.456-1.066 1.687-.082 5.073.125 6.735.424 3.374.608 9.251 2.483 11.678 7.184.746 1.445.074 2.456-.123 2.675.3-2.426-4.838-6.746-12.052-7.604-7.52-.894-13.217.743-12.711 2.958 1.222 5.348 6.846 7.013 10.51 7.405 4.099.439 11.684-1.539 12.686-1.753-1.999 1.009-7.524 2.095-9.767 2.303-.744.07-2.24.104-2.986.085-5.949-.158-10.169-3.175-11.729-7.26-1.002-2.626.094-4.469 2.303-5.351z"/><use xlink:href="#O" fill="url(#E)"/><path d="M131.75 84.249a6 6 0 1 1-12 0 6 6 0 1 1 12 0z" fill="#7b5c33"/><path d="M122.258 87.056c.879-.076.105-.305.105-.305-.434-.234-1.254-.592-1.254-.926 0-1.031 1.418-1.295-.023-1.705-1.512-1.377 1.16-1.348 1.137-1.395-.973-2.379.305-1.072.844-1.775 1.98-2.596.551.27 1.629 0 .387-.094-.785-1.529.035-1.33.539.135.656.58.656.58.398-.076 1.008-.68 1.008-.68.75.223 1.277 1.289 1.043 1.09.375-.047.891-.223 1.289-.34 0 0 .07-.24.141-.035.914 2.66 3.281 2.473.563 3.24 0 0-.176 0 .375.439 2.707 2.168-2.098 1.494.457 2.49.105-.1-1.535.967-1.535 1.266 0 .498-1.043 1.816-1.945 1.295-.504-.287-.586.604-.879.193-.574-.803-1.746-.035-1.313-.773.633-.521-.656.205-.902.205-.832 0 1.078-2.783 3.891-.715.82.598-.867-1.436.633-1.436.141.047.105-.521.105-.68-.785-.152 1.383-.006 1.383-1.266.141.029.516-.346-1.629 0 0 0-.07-.75-.035-.885.105-.439 1.207-.299.902-.75l-.797-1.605c-2.578-.41-1.102-.668-2.719-.34-.07.381-3.445 1.986-3.34 2.73.105.703 2.121.938.211 2.18 2.858 5.481-2.11-.121-.036 1.233z" fill="#8a6d47"/><path d="M125.75 78.999l.176 4.395 1.828-3.996-1.523 4.125 3.234-2.988-2.988 3.229 4.125-1.523-3.996 1.84 4.395.17-4.395.17 3.996 1.84-4.125-1.523 2.988 3.229-3.234-2.988 1.523 4.125-1.828-3.996-.176 4.391-.176-4.395-1.84 3.996 1.523-4.125-3.223 2.988 2.988-3.229-4.125 1.523 3.996-1.84-4.395-.17 4.395-.17-3.996-1.84 4.125 1.523-2.988-3.229 3.223 2.988-1.523-4.125 1.84 3.996.176-4.391z" fill="#5c3d14"/><path d="M126.547 80.317l-.539 3.316 1.98-2.713-1.77 2.859 2.871-1.752-2.719 1.969 3.316-.516-3.27.768 3.27.797-3.316-.539 2.707 1.98-2.859-1.764 1.746 2.871-1.957-2.725.516 3.316-.773-3.267-.797 3.264.539-3.316-1.98 2.713 1.77-2.859-2.871 1.752 2.719-1.969-3.316.516 3.27-.768-3.27-.797 3.316.539-2.707-1.98 2.859 1.764-1.746-2.871 1.957 2.725-.516-3.316.773 3.27.797-3.267z" fill="#4d3009"/><path d="M128 84.249a2.25 2.25 0 1 1-4.5 0 2.25 2.25 0 1 1 4.5 0z" opacity=".9"/><g fill="#fff"><path d="M123.383 88.562c-.328.328-.984.217-1.453-.264-.48-.475-.598-1.125-.258-1.459.328-.328.984-.211 1.453.264.48.474.598 1.125.258 1.459z" opacity=".7"/><path d="M130.555 83.065c-.492.498-1.699.105-2.684-.885-.984-.984-1.383-2.186-.879-2.678.492-.498 1.688-.105 2.672.885.996.985 1.383 2.186.891 2.678z" opacity=".9"/></g><path d="M126.063 56.402c-16.04 0-21.127 12.091-21.127 26.528s10.366 22.412 20.864 22.305c8.869 1.347 19.697-11.337 20.506-22.236.001-14.436-8.743-26.597-20.243-26.597zm1.276 33.761c-3.614.398-13.873-1.561-14.253-2.847-.687-2.32 4.534-6.921 12.052-7.844s13.217.767 12.711 3.051c-1.222 5.517-6.846 7.235-10.51 7.64z" class="B"/><path d="M127.339 90.163c-3.614.398-13.873-1.561-14.253-2.847-.687-2.32 4.534-6.921 12.052-7.844 6.46-.792 11.563.345 12.556 2.128-.898-6.4-7.7-11.397-15.987-11.434-8.911-.037-16.148 5.676-16.172 12.765s7.185 12.862 16.095 12.902 16.149-5.676 16.173-12.764c0-.105-.016-.208-.019-.313-1.331 5.327-6.835 7.008-10.445 7.407z" fill="url(#H)"/><use xlink:href="#O" fill="url(#I)"/><path d="M137.452 77.417c-4.208-1.978-9.35-2.16-13.838-1.005-2.404.561-4.965 1.285-7.063 2.638-1.945 1.135-3.525 2.5-5.002 4.19 1.342-1.701 2.773-3.118 4.623-4.27 2.276-1.416 4.769-2.294 7.364-2.916 4.587-1.126 9.723-.87 13.916 1.363z" class="C"/><path d="M136.832 78.02c-.88-.352-4.065-1-5.456-1.066-1.687-.082-5.073.125-6.735.424-3.374.608-9.251 2.483-11.678 7.184-.746 1.445-.074 2.456.123 2.675-.3-2.426 4.838-6.746 12.052-7.604 7.52-.894 13.217.743 12.711 2.958-1.222 5.348-6.846 7.013-10.51 7.405-4.099.439-11.684-1.539-12.686-1.753 1.999 1.009 7.524 2.095 9.767 2.303.744.07 2.24.104 2.986.085 5.949-.158 10.169-3.175 11.729-7.26 1.002-2.626-.094-4.469-2.303-5.351z"/><path d="M141 113.974c.035 22.622-18.292 40.994-40.938 41.025-22.642.037-41.028-18.273-41.063-40.9-.035-22.62 18.292-41.064 40.937-41.1s41.031 18.35 41.064 40.975z" fill="url(#A)"/><path d="M137.5 53.999c0 20.711-16.789 37.5-37.499 37.5S62.5 74.71 62.5 53.999s16.79-37.5 37.501-37.5 37.499 16.789 37.499 37.5z" fill="url(#B)"/><path d="M54 74.189c9.954-9.974 16.761-5.915 30.589-3.264.845.162 6.32 1.539 5.31 3.469-.483.924-2.036.814-2.903.798-13.688-.256-20.344-9.995-32.996-1.003zm92 0c-9.953-9.974-16.761-5.915-30.589-3.264-.846.162-6.32 1.539-5.311 3.469.483.924 2.036.814 2.903.798 13.688-.256 20.345-9.995 32.997-1.003z" class="F"/><path d="M91.115 115.499c-.878 2.064 5.934 4.292 8.519 4.429 2.8.147 10.646-2.9 9.316-4.992-1.399-2.195-6.643-.286-8.906-.286-2.252-.001-7.753-1.905-8.929.849z" fill="#e1ac8f"/><path d="M101.857 117.058c-.23-.759 1.876-1.584 2.657-1.694 1.101-.16 3.36.802 3.158 1.592-.184.698-2.148-.533-2.86-.429-.734.107-2.737 1.242-2.955.531zm-6.883-.247c.968 0 2.404.623 2.668.074.315-.655-2.139-1.461-2.86-1.372-.596.07-2.733 1.315-2.439 1.839.274.481 1.355-.541 2.631-.541z" class="C"/><path d="M100.089 111.999c.607 0 1.742-.74 1.792-2.23.201-6.008-.956-23.833-1.792-23.77-.78.059-2.267 17.637-1.948 23.77.079 1.502 1.263 2.23 1.948 2.23z" fill="#fff5ef" opacity=".2"/><g class="F"><path d="M100 18.13h0 0 0z"/><path d="M100 18.13h0 0 0z"/><path d="M44.974 94.895c-2.423-8.815-3.728-16.533-5.54-24.585l.083-.019c-.686-1.689-3.162-15.06-3.185-15.204-2.525-17.77 4.993-18.784 4.84-26.198 3.165 1.585 6.242.799 9.019-1.365-2.918-1.499-1.997-1.736-5.872-4.095 2.731-.472 4.326.165 6.646.454-1.983-1.983-5.875-6.028-8.404-5.492l-.165-.354c3.661-2.857 8.548 3.091 12.954 1.48C55.483 3.144 79.417-.256 85.242-2.689c7.755-2.951 15.856-9.441 21.553-10.021-3.225 3.241-5.2 8.449-5.347 12.358 4.698-4.486 5.03-4.355 12.151-12.264 0 6.364-1.763 7.163-4.051 10.898 6.211-4.07 13.955-15.489 25.881-17.235l.131.37c-4.298 2.532-7.624 6.804-9.898 12.708 2.257-2.726 5.451-5.683 8.986-6.218l.133.369c-2.215 1.325-6.554 5.742-7.547 13.138 4.381-4.893 11.35-8.948 16.134-10.48l.187.346c-4.392 3.573-6.153 9.828-7.146 15.146 3.08-4.58 4.872-5.624 8.747-7.548-1.247 1.865-1.166 1.539-2.158 3.566 2.396 6.123 10.313 6.361 11.666 17.059 1.63-1.424 2.277-1.781 4.151-3.092l.282.272c-1.408 2.187-2.569 6.06-3.342 8.652 2.78-2.123 7.073-3.687 10.096-4.778l.211.328c-2.551 2.593-5.648 6.546-6.162 10.834 1-.592 1.048-.524 2.35-1.466 0 3.081.105 2.688.127 4.105 1.257-1.125 1.45-1.282 2.276-2.181-.183 32.362-1.845 25.912-6.317 48.466-.784 3.963-2.171 10.883-3.061 14.207l-6.049 1.039c1.87-22.394-.093-17.512 1.267-31.604 2.012-20.779-14.804-37.812-37.025-32.237-4.496 1.128-22.44 1.127-26.934 0-24.547-6.163-33.391 8.18-36.026 33.278-1.291 12.318-1.607 8.161.267 30.563l-5.801-.994z"/></g><path d="M162.376 34.359c-.021-1.418-.127-1.024-.127-4.105-1.302.941-1.35.874-2.35 1.466.514-4.288 3.611-8.241 6.162-10.834l-.211-.328c-3.022 1.092-7.315 2.655-10.096 4.778.772-2.592 1.934-6.465 3.342-8.652l-.282-.272c-1.874 1.311-2.521 1.668-4.151 3.092-1.353-10.697-9.27-10.936-11.666-17.059.992-2.027.911-1.701 2.158-3.566-3.875 1.924-5.667 2.968-8.747 7.548.993-5.318 2.755-11.573 7.146-15.146l-.187-.346c-4.784 1.532-11.753 5.587-16.134 10.48.993-7.396 5.332-11.813 7.547-13.138l-.133-.369c-3.535.535-6.729 3.493-8.986 6.218 2.274-5.904 5.601-10.176 9.898-12.708l-.131-.37c-11.926 1.746-19.67 13.165-25.881 17.235 2.288-3.735 4.051-4.535 4.051-10.898-7.121 7.909-7.453 7.778-12.151 12.264.146-3.909 2.122-9.118 5.347-12.358-5.696.58-13.797 7.069-21.553 10.021C79.417-.256 55.483 3.144 55.35 19.518c-4.406 1.611-9.293-4.337-12.954-1.48l.165.354c2.529-.537 6.421 3.508 8.404 5.492-2.319-.289-3.915-.926-6.646-.454 3.875 2.359 2.954 2.596 5.872 4.095-2.777 2.164-5.854 2.95-9.019 1.365.153 7.415-7.366 8.429-4.84 26.198.023.144 2.499 13.515 3.185 15.204l-.083.019c1.812 8.052 3.117 15.771 5.54 24.585l.026.003c-.661-16.442-11.02-39.816-4.941-54.788C40.852 38.156 43.92 33 43.92 33s9.627-1.264 10.08-5c0 0-2-1-3-2 2 1 2-2 4-1 0-2-3-1-3-3 2 0 4 0 6 2-1-5 0-10 4-13C72 3 85 4 95-4c-1 5-2 10-2 15 6-3 8-9 13-13 1 4-1 9-1 13 3-7 7-14 16-16-4 4-4 10-4 15 0-4 4-6 5-9v12c2-6 6-9 11-11-4 4-3 8-4 13 3-3 7-4 10-7 3 6 1 11 1 17 1-5 6-8 9-12 1 5 1 10 0 15 1-3 3-5 4-8 0 4.86-.668 9.062-1.98 13.142 1.255-1.452 3.304-2.111 3.98-4.142v12.027c.58-1.192 2.29-1.608 3-3.027-.854 3.413-.254 6.103-.059 9.302.371-1.96 2.258-3.162 2.94-4.967l.118-2.335c.229.912.135 1.664-.118 2.335-.912 17.771-2.593 35.516-6.256 52.628l.648-.111c.89-3.324 2.276-10.244 3.061-14.207 4.473-22.554 6.135-16.104 6.317-48.466-.825.899-1.018 1.056-2.275 2.18z" fill="#3a353a"/><path d="M167.779 19.695c-4.949.834-8.406 2.438-11.05 4.25.385-1.005 2.193-6.67 4.14-9.05-2.99 1.333-4.72 2.763-5.72 3.51 0-1.032-.398-2.224-.59-2.84-.189-.515-.348-1.117-1.271-2.62-5.171-7.296-5.494-4.244-9.729-9.83.772-1.811 1.889-3.572 3.29-5.03-3.908.555-5.965 2.075-8.44 4.51-.04.04-.07.08-.1.12 1.551-6.126 4.59-11.437 10.56-13.43-7.384-.268-16.525 5.192-21.12 10.64 1.984-6.381 4.646-9.421 8.601-12.25-2.846-.421-5.635.742-7.841 2.58 2.541-4.397 6.317-7.899 9.351-9.53-.431-.01-.94-.04-1.5 0-.777-.199-5.479.566-7.16 1.29-8.329 3.252-14.389 10.822-16.99 13.28 1.916-3.098 2.01-5.298 1.66-8.52-.655.563-11.615 11.055-11.75 11.19.777-4.309 2.245-6.937 5.02-10.79-4.947-.926-17.332 7.217-25.01 9.39-8.044 2.179-28.004 6.723-27.09 22.7-4.295.819-10.584-6.077-13.88-.29 2.646-1.57 6.151 2.21 8.59 4.37-1-.163-4.343-.948-5.96.13 1.894.735 3.55 2.932 5.89 4.1.03.01.06.02.09.04-2.139 1.128-4.667 2.034-6.99 1.39-.35-.1-.58-.16-.58-.17l-.87-.38h-.01l-.01-.01-.4-.21c.695 5.608-7.817 10.155-6.88 22.02.385 7.301 4.949 29.508 10.686 44.566l.483.144c-2.392-8.626-3.777-16.74-5.569-24.701-.156 0-3.073-15.044-3.1-15.21-2.506-17.631 4.994-18.91 4.85-25.84 3.121 1.561 6.532.436 9.18-1.73-3.118-1.551-2.453-1.988-5.68-3.95 2.163-.374 4.803.483 6.62.6-2.346-2.346-6.299-6.51-8.98-5.94 3.568-2.785 8.497 3.271 13.03 1.46 0-16.383 23.723-19.635 29.77-22.16 7.271-2.766 16.283-9.476 20.939-9.95-2.44 2.458-5.02 7.901-5.02 12.58 4.834-4.638 5.31-4.615 12.16-12.22 0 6.014-2.247 7.088-4.431 10.97 6.414-3.698 14.179-15.828 26.49-17.63-5.154 3.037-8.435 8.325-10.41 13.97 2.352-3.059 5.8-6.53 9.63-7.11-2.009 1.202-6.861 5.782-7.72 13.93 4.345-5.114 11.586-9.346 16.47-10.91-4.605 3.748-6.368 10.371-7.39 16.22 1.687-2.573 3.357-4.897 5.97-6.54.011-.01.03-.02.04-.02 1.029-.699.76-.509 2.521-1.39-.669 1-.731.87-1.79 3.04 2.426 6.377 10.523 6.413 11.729 17.47 1.857-1.647 2.441-1.944 4.42-3.33-1.542 2.394-2.784 6.768-3.55 9.32 2.905-2.485 8.279-4.33 10.54-5.15-3 3.05-5.913 7.096-6.26 11.36.614-.413 1.394-.74 2.39-1.46 0 2.724.13 2.36.13 4.16.526-.481 1.72-1.51 2.271-2.11-.196 31.716-1.88 25.564-6.311 47.91-1.658 8.376-2.533 12.25-3.081 14.283l.428-.087c3.584-10.751 10.737-35.042 10.414-47.616-.033-4.7-1.059-14.5-1.11-15.5-.021.018-2.084 1.97-2.11 1.97 0-.511-.21-2.685-.21-3.87-.353.271-1.095.778-2.09 1.36 1.379-4.163 3.478-6.75 7.4-11.449z"/><path d="M100 18.13h0 0 0z" fill="#26120b"/></g><defs><radialGradient id="A" cx="100" cy="114" r="41" xlink:href="#P"><stop stop-opacity=".5" stop-color="#ffe4d6" offset="0"/><stop stop-opacity="0" stop-color="#f0c7b1" offset=".9"/></radialGradient><radialGradient id="B" cx="100" cy="54" r="37" xlink:href="#P"><stop stop-opacity=".5" stop-color="#ffe4d6" offset="0"/><stop stop-opacity="0" stop-color="#f0c7b1" offset=".9"/></radialGradient><linearGradient id="C" x1="100" y1="142" x2="100" y2="139" xlink:href="#P"><stop stop-color="#e8b9a0" offset=".1"/><stop stop-color="#e1ac8f" offset="1"/></linearGradient><radialGradient id="D" cx="129.041" cy="83.945" r="15.117" gradientTransform="matrix(-0.9945 0.1042 0.1042 0.9945 192.8281 -12.4633)" xlink:href="#P"><stop stop-color="#fff" offset="0"/><stop stop-color="#fcfdfd" offset=".315"/><stop stop-color="#f4f7f8" offset=".504"/><stop stop-color="#e5ecef" offset=".66"/><stop stop-color="#d8e2e7" offset=".76"/></radialGradient><radialGradient id="E" cx="128.643" cy="83.986" r="15.116" gradientTransform="matrix(0.9945 0.1042 -0.1042 0.9945 7.1738 -12.4633)" xlink:href="#P"><stop stop-color="#fff" offset="0"/><stop stop-color="#fcfdfd" offset=".316"/><stop stop-color="#f4f7f8" offset=".505"/><stop stop-color="#e5ecef" offset=".661"/><stop stop-color="#d8e2e7" offset=".76"/></radialGradient><radialGradient id="F" cx="121.986" cy="82.496" fx="133.239" fy="82.527" r="16.003" gradientTransform="matrix(0.9998 0.0208 0.0166 -0.7998 -45.3195 145.9395)" xlink:href="#P"><stop stop-color="#e1ac8f" offset="0"/><stop stop-opacity=".3" stop-color="#e1ac8f" offset=".7"/><stop stop-opacity="0" stop-color="#f0c7b1" offset="1"/></radialGradient><radialGradient id="G" cx="68.931" cy="105.995" r="29.524" gradientTransform="matrix(1.0336,0,0,1.0336,-1.6796,1.3127)" xlink:href="#P"><stop stop-opacity="0" offset=".95"/><stop stop-opacity=".2" offset="1"/></radialGradient><radialGradient id="H" cx="121.587" cy="82.496" fx="132.839" fy="82.527" r="16.003" gradientTransform="matrix(-0.9998 0.0208 -0.0166 -0.7998 244.5208 145.9478)" xlink:href="#P"><stop stop-color="#e1ac8f" offset="0"/><stop stop-opacity=".3" stop-color="#e1ac8f" offset=".7"/><stop stop-opacity="0" stop-color="#f0c7b1" offset="1"/></radialGradient><radialGradient id="I" cx="69.316" cy="105.995" r="29.524" gradientTransform="matrix(-1.0336,0,0,1.0336,201.6796,1.3127)" xlink:href="#P"><stop stop-opacity="0" offset=".95"/><stop stop-opacity=".2" offset="1"/></radialGradient><linearGradient id="J" x1="100" y1="171" x2="100" y2="128" xlink:href="#P"><stop stop-opacity=".8" stop-color="#e1ac8f" offset="0"/><stop stop-color="#c27b55" offset=".7"/></linearGradient><path id="K" d="M195.417 199.778c-2.196-4.746-8.195-11.779-14.86-13.722-8.239-2.403-26.837-5.308-33.733-6.923-5.528-1.296-16.662-11.294-20.564-14.65-.7-.6-1.273-1.839-1.287-2.76-.139-10.864 4.195-39.724 4.195-39.724H100 70.833s4.334 28.859 4.193 39.724c-.011.921-.587 2.16-1.285 2.76-3.902 3.356-15.036 13.354-20.564 14.65-6.897 1.615-25.495 4.619-33.733 7.022-6.667 1.942-12.664 8.876-14.86 13.622-3.708 8.008-4.584 22.5-4.584 35h100 100c0-12.499-.877-26.991-4.583-34.999z"/><path id="L" d="M144.004 126.997c-5.003 10.225-20.047 28.437-30.801 33.266-5.366 2.412-21.089 2.53-26.401 0-10.646-5.067-25.765-23.057-30.801-33.266-5.613-11.374-14.851-48.553-14.863-48.607a62.25 62.25 0 0 1-2.004-15.623c-.052-34 27.154-61.598 60.772-61.65s60.913 27.457 60.963 61.456c.009 5.4-.669 10.638-1.952 15.631-.016.052-9.317 37.355-14.913 48.793z"/><path id="M" d="M82.5 130.299s12.532 1.486 16.718 1.499c4.553.012 19.282-1.499 19.282-1.499-4.258 3.534-8.943 6.932-19.555 6.999-9.492.061-11.924-3.386-16.445-6.999z"/><path id="N" d="M61.752 82.523c-.506-2.285 5.191-3.973 12.711-3.051s12.738 5.524 12.052 7.844c-.38 1.286-10.639 3.245-14.253 2.847-3.664-.405-9.288-2.123-10.51-7.64z"/><path id="O" d="M137.849 82.523c.506-2.285-5.191-3.973-12.711-3.051s-12.738 5.524-12.052 7.844c.38 1.286 10.639 3.245 14.253 2.847 3.664-.405 9.288-2.123 10.51-7.64z"/><linearGradient id="P" gradientUnits="userSpaceOnUse"/></defs></svg>